<svg width="1538" height="1097" viewBox="0 0 1538 1097" fill="none" xmlns="http://www.w3.org/2000/svg">
<g clip-path="url(#clip0)">
<path d="M153.662 997.667L124.308 1024.68L147.636 985.553C129.257 952.236 99.1985 923.443 99.1985 923.443C99.1985 923.443 36.837 983.167 36.837 1030.11C36.837 1077.06 64.7571 1093.45 99.1985 1093.45C133.639 1093.45 161.559 1077.06 161.559 1030.11C161.559 1019.66 158.465 1008.58 153.662 997.667Z" fill="#231531"/>
<path d="M116.759 1026.14V1028.46C116.622 1055.35 112.084 1076.34 103.179 1091.12C103.053 1091.34 102.915 1091.54 102.789 1091.76L101.792 1091.15L100.841 1090.56C110.72 1074.6 114.215 1052.04 114.341 1028.58C114.353 1027.83 114.364 1027.06 114.353 1026.29C114.318 1016.36 113.711 1006.31 112.737 996.552C112.668 995.796 112.588 995.028 112.507 994.261C111.155 981.384 109.207 969.081 107.213 958.392C107.075 957.636 106.926 956.88 106.777 956.135C103.328 938.058 99.8094 924.964 99.0071 922.066C98.9155 921.711 98.8582 921.516 98.8467 921.47L99.9354 921.161L99.9469 921.149L101.047 920.84C101.059 920.886 101.253 921.539 101.574 922.753C102.801 927.29 105.987 939.605 109.115 955.849C109.253 956.582 109.402 957.338 109.539 958.094C111.167 966.767 112.76 976.458 114.02 986.631C114.341 989.186 114.628 991.706 114.88 994.192C114.971 994.959 115.052 995.727 115.12 996.483C116.175 1007.03 116.721 1016.92 116.759 1026.14Z" fill="white"/>
<path d="M109.115 955.849C108.347 955.952 107.568 956.055 106.777 956.135C104.63 956.356 102.473 956.467 100.314 956.467C91.1134 956.48 82.0276 954.428 73.7257 950.465C73.2444 951.072 72.7631 951.679 72.2703 952.298C81.0035 956.559 90.5955 958.769 100.314 958.759C102.618 958.758 104.921 958.636 107.213 958.392C107.992 958.312 108.771 958.209 109.539 958.094C115.877 957.185 122.041 955.32 127.818 952.561C127.326 951.931 126.844 951.313 126.374 950.705C120.906 953.26 115.09 954.993 109.115 955.849V955.849Z" fill="white"/>
<path d="M114.88 994.192C114.089 994.238 113.298 994.261 112.508 994.261C112.267 994.272 112.015 994.272 111.774 994.272C101.805 994.272 91.9838 991.863 83.1476 987.249C74.3115 982.635 66.7225 975.954 61.0276 967.775C60.5692 968.451 60.1108 969.126 59.6639 969.814C65.5996 978.09 73.4225 984.833 82.4845 989.485C91.5466 994.136 101.587 996.563 111.774 996.563C112.095 996.563 112.416 996.563 112.737 996.552C113.539 996.54 114.33 996.517 115.12 996.483C127.357 995.857 139.154 991.72 149.1 984.569C148.734 983.893 148.367 983.217 147.989 982.541C138.322 989.563 126.815 993.612 114.88 994.192V994.192Z" fill="white"/>
<path d="M116.759 1026.14C115.957 1026.21 115.155 1026.26 114.353 1026.29C113.493 1026.33 112.633 1026.35 111.774 1026.35C98.3783 1026.33 85.3479 1021.98 74.6338 1013.94C63.9198 1005.91 56.0984 994.615 52.3407 981.762C51.8249 982.69 51.3092 983.607 50.8164 984.535C55.0503 997.358 63.2189 1008.52 74.1618 1016.44C85.1047 1024.36 98.2653 1028.63 111.774 1028.64C112.633 1028.64 113.493 1028.63 114.341 1028.58C115.155 1028.56 115.957 1028.51 116.759 1028.46C132.963 1027.19 148.08 1019.81 159.048 1007.82C158.807 1006.98 158.532 1006.14 158.257 1005.29C147.663 1017.37 132.778 1024.85 116.759 1026.14Z" fill="white"/>
<path d="M1538 138.464H974.795V479.532H1538V138.464Z" fill="#231531"/>
<path d="M1528.52 65.3789H743.669C743.187 65.3789 742.725 65.1876 742.384 64.847C742.043 64.5064 741.852 64.0445 741.852 63.5628C741.852 63.0812 742.043 62.6193 742.384 62.2787C742.725 61.9381 743.187 61.7468 743.669 61.7468H1528.52C1529 61.7468 1529.47 61.9381 1529.81 62.2787C1530.15 62.6193 1530.34 63.0812 1530.34 63.5628C1530.34 64.0445 1530.15 64.5064 1529.81 64.847C1529.47 65.1876 1529 65.3789 1528.52 65.3789Z" fill="#CACACA"/>
<path d="M784.561 39.9538C795.598 39.9538 804.545 31.0099 804.545 19.9769C804.545 8.94397 795.598 0 784.561 0C773.524 0 764.576 8.94397 764.576 19.9769C764.576 31.0099 773.524 39.9538 784.561 39.9538Z" fill="#3F3D56"/>
<path d="M853.599 39.9538C864.636 39.9538 873.583 31.0099 873.583 19.9769C873.583 8.94397 864.636 0 853.599 0C842.562 0 833.614 8.94397 833.614 19.9769C833.614 31.0099 842.562 39.9538 853.599 39.9538Z" fill="#3F3D56"/>
<path d="M922.637 39.9538C933.674 39.9538 942.622 31.0099 942.622 19.9769C942.622 8.94397 933.674 0 922.637 0C911.6 0 902.652 8.94397 902.652 19.9769C902.652 31.0099 911.6 39.9538 922.637 39.9538Z" fill="#3F3D56"/>
<path d="M1296.39 304.839L1262.11 269.521C1261.36 268.767 1260.47 268.174 1259.48 267.778C1258.5 267.382 1257.44 267.192 1256.38 267.219H1256.28C1255.21 267.192 1254.16 267.382 1253.17 267.778C1252.19 268.174 1251.29 268.767 1250.54 269.521L1216.26 304.839C1214.8 306.209 1213.93 308.105 1213.87 310.109C1213.8 312.114 1214.53 314.063 1215.9 315.528C1216.02 315.652 1216.14 315.772 1216.26 315.887C1217.83 317.354 1219.9 318.17 1222.04 318.17C1224.19 318.17 1226.26 317.354 1227.83 315.887L1248.14 294.66V349.39C1248.23 351.497 1249.14 353.487 1250.66 354.945C1252.19 356.402 1254.22 357.216 1256.33 357.216C1258.44 357.216 1260.47 356.402 1261.99 354.945C1263.52 353.487 1264.42 351.497 1264.51 349.39V294.66L1284.83 315.887C1286.4 317.354 1288.46 318.17 1290.61 318.17C1292.76 318.17 1294.82 317.354 1296.39 315.887C1297.86 314.518 1298.72 312.622 1298.79 310.617C1298.85 308.613 1298.12 306.663 1296.75 305.198C1296.64 305.075 1296.52 304.955 1296.39 304.839Z" fill="white"/>
<path d="M1256.4 393.148C1240.48 393.148 1224.93 388.431 1211.7 379.593C1198.47 370.756 1188.15 358.195 1182.06 343.499C1175.97 328.803 1174.38 312.632 1177.49 297.031C1180.59 281.429 1188.25 267.099 1199.5 255.851C1210.76 244.603 1225.09 236.943 1240.7 233.84C1256.31 230.737 1272.49 232.329 1287.19 238.417C1301.89 244.504 1314.45 254.812 1323.3 268.039C1332.14 281.265 1336.85 296.814 1336.85 312.721C1336.83 334.044 1328.35 354.487 1313.26 369.565C1298.18 384.642 1277.73 393.124 1256.4 393.148V393.148ZM1256.4 235.273C1241.07 235.273 1226.09 239.816 1213.35 248.326C1200.61 256.836 1190.68 268.931 1184.82 283.083C1178.95 297.235 1177.42 312.807 1180.41 327.83C1183.4 342.854 1190.78 356.654 1201.61 367.485C1212.45 378.316 1226.25 385.692 1241.28 388.681C1256.31 391.669 1271.89 390.135 1286.05 384.274C1300.2 378.412 1312.3 368.485 1320.82 355.749C1329.33 343.013 1333.87 328.039 1333.87 312.721C1333.85 292.188 1325.68 272.502 1311.16 257.983C1296.63 243.464 1276.94 235.297 1256.4 235.273V235.273Z" fill="white"/>
<path d="M1301.16 661.708H775.138C769.762 661.695 765.404 652.785 765.397 641.785V374.904C765.397 363.906 769.762 354.999 775.138 354.981H1301.16C1306.54 354.995 1310.89 363.904 1310.9 374.904V641.783C1310.89 652.781 1306.53 661.694 1301.16 661.708Z" fill="white"/>
<path d="M944.308 506.625C969.712 506.625 990.306 486.039 990.306 460.645C990.306 435.251 969.712 414.665 944.308 414.665C918.904 414.665 898.31 435.251 898.31 460.645C898.31 486.039 918.904 506.625 944.308 506.625Z" fill="#3F3D56"/>
<path d="M1088.55 602.335H862.902C862.62 602.338 862.338 602.315 862.06 602.266L968.786 417.484C969.437 416.333 970.382 415.375 971.525 414.709C972.668 414.042 973.967 413.691 975.29 413.691C976.613 413.691 977.912 414.042 979.055 414.709C980.197 415.375 981.142 416.333 981.793 417.484L1053.42 541.488L1056.85 547.421L1088.55 602.335Z" fill="#01FFE2"/>
<path d="M1214.19 602.337H1019.02L1056.83 547.428L1059.56 543.472L1108.84 471.911C1109.71 470.816 1110.8 469.917 1112.04 469.272C1113.29 468.627 1114.65 468.25 1116.05 468.167C1117.44 468.084 1118.84 468.295 1120.15 468.788C1121.46 469.281 1122.65 470.044 1123.65 471.028C1123.91 471.307 1124.14 471.602 1124.36 471.911L1214.19 602.337Z" fill="#01FFE2"/>
<path d="M1301.16 661.708H775.138C769.762 661.695 765.404 652.785 765.397 641.785V374.904C765.397 363.906 769.762 354.999 775.138 354.981H1301.16C1306.54 354.995 1310.89 363.904 1310.9 374.904V641.783C1310.89 652.781 1306.53 661.694 1301.16 661.708ZM775.138 362.95C771.911 362.95 769.297 368.306 769.293 374.904V641.783C769.293 648.381 771.911 653.73 775.138 653.737H1301.16C1304.39 653.737 1307 648.383 1307.01 641.783V374.904C1307.01 368.306 1304.39 362.957 1301.16 362.95L775.138 362.95Z" fill="#E6E6E6"/>
<path d="M694.014 1097H1.81679C1.33495 1097 0.872839 1096.81 0.532125 1096.47C0.19141 1096.13 0 1095.67 0 1095.18C0 1094.7 0.19141 1094.24 0.532125 1093.9C0.872839 1093.56 1.33495 1093.37 1.81679 1093.37H694.014C694.496 1093.37 694.958 1093.56 695.299 1093.9C695.64 1094.24 695.831 1094.7 695.831 1095.18C695.831 1095.67 695.64 1096.13 695.299 1096.47C694.958 1096.81 694.496 1097 694.014 1097Z" fill="#CACACA"/>
<path d="M486.812 376.587C469.705 352.506 435.86 351.383 435.86 351.383C435.86 351.383 402.88 347.87 381.724 384.545C362.005 418.73 389.789 461.222 389.789 461.222C395.281 461.551 419.024 461.695 489.682 452.969L492.848 435.903L501.93 451.466C505.706 451.005 509.633 450.528 513.738 450.033C511.88 431.922 503.273 399.757 486.812 376.587Z" fill="#2F2E41"/>
<path d="M527.137 713.516L522.605 557.685L491.751 571.178L506.639 715.205C503.429 717.692 501.11 721.15 500.026 725.062C498.942 728.974 499.151 733.132 500.623 736.916C502.095 740.699 504.75 743.906 508.194 746.059C511.637 748.211 515.684 749.194 519.732 748.861C523.779 748.528 527.611 746.896 530.655 744.209C533.7 741.522 535.794 737.924 536.627 733.951C537.459 729.977 536.985 725.841 535.275 722.159C533.565 718.477 530.711 715.445 527.137 713.516V713.516Z" fill="#FFB8B8"/>
<path d="M486.93 577.925C507.052 579.871 521.505 571.562 531.283 554.793L524.533 523.901C524.533 513.85 521.329 504.062 515.386 495.956C509.443 487.849 501.07 481.847 491.482 478.821L487.894 477.688L486.93 577.925Z" fill="#01FFE2"/>
<path d="M319.08 535.075C318.816 535.075 318.552 535.048 318.294 534.994L281.071 534.366L280.99 533.441L280.991 533.401L284.08 456.734C284.114 455.951 284.303 455.182 284.635 454.472C284.966 453.761 285.435 453.123 286.014 452.594C286.592 452.065 287.27 451.654 288.007 451.387C288.744 451.119 289.527 450.999 290.31 451.034L320.125 452.363C320.908 452.398 321.677 452.587 322.387 452.919C323.098 453.251 323.736 453.719 324.265 454.298C324.794 454.876 325.204 455.553 325.472 456.29C325.739 457.026 325.859 457.809 325.824 458.592L322.891 531.412C322.851 532.396 322.432 533.327 321.722 534.009C321.011 534.692 320.065 535.074 319.08 535.075L319.08 535.075Z" fill="#01FFE2"/>
<path d="M315.023 535.13C314.928 535.13 314.832 535.127 314.737 535.123L285.51 533.821C283.851 533.745 282.289 533.014 281.168 531.789C280.047 530.564 279.458 528.944 279.53 527.285L282.652 457.283C282.725 455.702 283.421 454.215 284.589 453.147C285.758 452.079 287.302 451.518 288.883 451.587L318.698 452.915C320.279 452.988 321.767 453.684 322.835 454.852C323.904 456.02 324.465 457.563 324.397 459.144L321.275 529.146C321.202 530.756 320.513 532.276 319.348 533.39C318.184 534.505 316.635 535.128 315.023 535.13V535.13Z" fill="#2F2E41"/>
<path d="M301.937 474.138C304.294 474.138 306.205 472.227 306.205 469.871C306.205 467.515 304.294 465.604 301.937 465.604C299.579 465.604 297.668 467.515 297.668 469.871C297.668 472.227 299.579 474.138 301.937 474.138Z" fill="#01FFE2"/>
<path d="M337.419 554.124V582.263L310.225 539.428C312.158 536.124 312.97 532.284 312.541 528.481C312.112 524.678 310.464 521.115 307.844 518.324C305.224 515.534 301.771 513.665 298.001 512.996C294.231 512.328 290.346 512.895 286.925 514.615C283.504 516.334 280.731 519.113 279.019 522.536C277.308 525.96 276.749 529.845 277.427 533.612C278.105 537.379 279.983 540.826 282.781 543.438C285.579 546.051 289.147 547.689 292.953 548.109L330.967 615.44C332.949 618.951 336.001 621.738 339.678 623.394C343.355 625.051 347.465 625.491 351.41 624.649C355.354 623.808 358.927 621.73 361.608 618.718C364.289 615.706 365.937 611.917 366.314 607.903L371.018 557.755L337.419 554.124Z" fill="#FFB8B8"/>
<path d="M374.65 575.909C355.699 577.742 342.087 569.916 332.879 554.124L339.235 525.029C339.235 515.564 342.253 506.345 347.85 498.711C353.447 491.076 361.333 485.424 370.362 482.574L373.742 481.507L374.65 575.909Z" fill="#01FFE2"/>
<path d="M418.585 1080.13L397.85 1076.77L400.96 995.223L431.563 1000.19L418.585 1080.13Z" fill="#FFB6B6"/>
<path d="M423.242 1095.8L355.512 1095.87L355.511 1095.01C355.505 1088.02 358.275 1081.32 363.214 1076.37C368.153 1071.42 374.855 1068.64 381.847 1068.63H381.848L423.216 1068.59L423.242 1095.8Z" fill="#2F2E41"/>
<path d="M517.671 1032.65L498.916 1042.1L453.497 974.298L481.175 960.339L517.671 1032.65Z" fill="#FFB6B6"/>
<path d="M531.626 1048.4L471.157 1078.9L470.771 1078.14C467.622 1071.9 467.081 1064.66 469.268 1058.03C471.454 1051.39 476.189 1045.89 482.431 1042.74L482.432 1042.74L519.365 1024.11L531.626 1048.4Z" fill="#2F2E41"/>
<path d="M433.537 454.186C453.901 454.186 470.409 437.685 470.409 417.329C470.409 396.973 453.901 380.471 433.537 380.471C413.173 380.471 396.665 396.973 396.665 417.329C396.665 437.685 413.173 454.186 433.537 454.186Z" fill="#FFB8B8"/>
<path d="M479.249 380.175L445.812 362.667L399.637 369.829L390.084 412.008C437.241 418.787 469.881 422.675 480.842 411.212L479.249 380.175Z" fill="#2F2E41"/>
<path d="M374.07 647.8C374.07 647.8 345.962 705.265 377.105 790.3L463.125 1009.56L504.249 985.256L462.33 890.861L496.428 775.32C504.28 749.135 506.7 721.623 503.541 694.47C501.084 674.151 495.381 653.488 482.975 643.072C453.785 618.561 374.07 647.8 374.07 647.8Z" fill="#2F2E41"/>
<path d="M421.092 874.168L389.907 1032.21L431.439 1040.04L457.566 903.24L421.092 874.168Z" fill="#2F2E41"/>
<path d="M460.733 472.182L413.061 472.817L371.33 482.413L373.804 649.491C373.804 649.491 449.252 670.829 482.391 641.321L504.249 484.943C491.984 478.013 477.256 474.024 460.733 472.182Z" fill="#01FFE2"/>
<path d="M456.512 379.604C469.556 379.604 480.13 369.034 480.13 355.995C480.13 342.956 469.556 332.386 456.512 332.386C443.468 332.386 432.894 342.956 432.894 355.995C432.894 369.034 443.468 379.604 456.512 379.604Z" fill="#2F2E41"/>
<path d="M432.894 350.547C432.892 347.055 433.665 343.607 435.158 340.45C436.651 337.293 438.826 334.507 441.526 332.292C444.226 330.078 447.385 328.489 450.773 327.642C454.162 326.796 457.697 326.711 461.122 327.395C458.098 325.969 454.806 325.201 451.463 325.143C448.12 325.084 444.803 325.736 441.731 327.056C438.659 328.375 435.903 330.332 433.644 332.796C431.386 335.26 429.676 338.175 428.63 341.35C427.583 344.524 427.223 347.884 427.573 351.207C427.923 354.531 428.975 357.743 430.66 360.629C432.345 363.516 434.624 366.012 437.346 367.952C440.068 369.892 443.172 371.232 446.451 371.883C442.399 369.979 438.973 366.961 436.572 363.183C434.172 359.405 432.896 355.023 432.894 350.547V350.547Z" fill="#2F2E41"/>
</g>
<defs>
<clipPath id="clip0">
<rect width="1538" height="1097" fill="white"/>
</clipPath>
</defs>
</svg>
